#N canvas 0 22 488 403 10;
#X obj 266 189 +~;
#X obj 214 148 -~ 0.5;
#X obj 300 148 -~ 0.5;
#X obj 265 229 bp~ 660 3;
#X obj 213 120 phasor~;
#X obj 299 120 phasor~;
#X obj 208 326 outlet~ L;
#X obj 321 327 outlet~ R;
#X obj 299 91 + 2;
#X obj 329 61 r phase;
#X obj 154 94 print;
#X obj 356 206 smoothvol;
#X obj 271 268 *~;
#X obj 206 37 unpack f f;
#X obj 206 -1 inlet;
#X connect 0 0 3 0;
#X connect 1 0 0 0;
#X connect 2 0 0 1;
#X connect 3 0 12 0;
#X connect 4 0 1 0;
#X connect 5 0 2 0;
#X connect 8 0 5 0;
#X connect 9 0 8 1;
#X connect 11 0 12 1;
#X connect 12 0 6 0;
#X connect 12 0 7 0;
#X connect 13 0 4 0;
#X connect 13 0 8 0;
#X connect 13 1 11 0;
#X connect 14 0 13 0;
#X connect 14 0 10 0;
