#N canvas 479 527 238 327 10;
#X obj 33 134 mtof;
#X obj 29 70 unpack 0 0;
#X obj 72 133 / 127;
#X obj 29 23 inlet;
#X floatatom 151 163 5 0 0 0 - - -;
#X floatatom 151 194 5 0 0 0 - - -;
#X obj 44 241 s channels;
#X obj 146 111 inlet;
#X obj 44 188 pack f f f;
#X msg 44 210 \$3 \$1 \$2;
#X floatatom 155 141 5 0 0 0 - - -;
#X connect 0 0 8 0;
#X connect 1 0 0 0;
#X connect 1 0 5 0;
#X connect 1 1 2 0;
#X connect 2 0 4 0;
#X connect 2 0 8 1;
#X connect 3 0 1 0;
#X connect 7 0 8 2;
#X connect 7 0 10 0;
#X connect 8 0 9 0;
#X connect 9 0 6 0;
