#N canvas 732 23 708 851 10;
#X obj 27 13 inlet;
#X obj 488 184 dac~;
#X msg 437 124 view;
#X obj 544 268 generator2~;
#X obj 276 -46 loadbang;
#X obj 9 215 pack 0 0 0;
#X obj 10 155 poly 10 1;
#X obj 9 245 route 1 2 3 4 5 6 7 8 9 10;
#X obj 16 94 unpack f f;
#X obj 264 170 bng 15 250 50 0 empty empty empty 17 7 0 10 -262144
-1 -1;
#X obj 475 154 channels~;
#X msg 204 196 1;
#X msg 189 53 init \$1 stereo generator2~;
#X msg 235 197 2;
#X msg 267 197 3;
#X msg 330 197 5;
#X msg 298 197 4;
#X msg 204 224 6;
#X msg 235 224 7;
#X msg 267 225 8;
#X msg 299 225 9;
#X msg 331 224 10;
#X obj 189 23 list-seek;
#X msg 247 -6 1 2 3 4 5 6 7 8 9 10;
#X msg 187 -22 set;
#X obj 98 -16 loadbang;
#X obj 99 8 loadbang;
#X obj 101 29 loadbang;
#X obj 102 53 loadbang;
#X obj 101 76 loadbang;
#X obj 102 100 loadbang;
#X obj 97 122 loadbang;
#X obj 98 146 loadbang;
#X obj 96 168 loadbang;
#X obj 97 192 loadbang;
#X obj 189 75 s \$0-channels;
#X obj 491 123 r \$0-channels;
#X obj 11 329 mtof;
#X obj 11 299 unpack 0 0;
#X obj 50 328 / 127;
#X obj 11 361 pack f f f;
#X msg 11 383 \$3 \$1 \$2;
#X obj 11 405 s \$0-channels;
#X obj 23 460 mtof;
#X obj 23 430 unpack 0 0;
#X obj 62 459 / 127;
#X obj 23 492 pack f f f;
#X msg 23 514 \$3 \$1 \$2;
#X obj 23 536 s \$0-channels;
#X obj 15 597 mtof;
#X obj 15 567 unpack 0 0;
#X obj 54 596 / 127;
#X obj 15 629 pack f f f;
#X msg 15 651 \$3 \$1 \$2;
#X obj 15 673 s \$0-channels;
#X obj 110 324 mtof;
#X obj 110 294 unpack 0 0;
#X obj 149 323 / 127;
#X obj 110 356 pack f f f;
#X msg 110 378 \$3 \$1 \$2;
#X obj 110 400 s \$0-channels;
#X obj 121 458 mtof;
#X obj 121 428 unpack 0 0;
#X obj 160 457 / 127;
#X obj 121 490 pack f f f;
#X msg 121 512 \$3 \$1 \$2;
#X obj 121 534 s \$0-channels;
#X obj 126 599 mtof;
#X obj 126 569 unpack 0 0;
#X obj 165 598 / 127;
#X obj 126 631 pack f f f;
#X msg 126 653 \$3 \$1 \$2;
#X obj 126 675 s \$0-channels;
#X obj 223 327 mtof;
#X obj 223 297 unpack 0 0;
#X obj 262 326 / 127;
#X obj 223 359 pack f f f;
#X msg 223 381 \$3 \$1 \$2;
#X obj 223 403 s \$0-channels;
#X obj 226 469 mtof;
#X obj 226 439 unpack 0 0;
#X obj 265 468 / 127;
#X obj 226 501 pack f f f;
#X msg 226 523 \$3 \$1 \$2;
#X obj 226 545 s \$0-channels;
#X obj 227 605 mtof;
#X obj 227 575 unpack 0 0;
#X obj 266 604 / 127;
#X obj 227 637 pack f f f;
#X msg 227 659 \$3 \$1 \$2;
#X obj 227 681 s \$0-channels;
#X obj 316 331 mtof;
#X obj 316 301 unpack 0 0;
#X obj 355 330 / 127;
#X obj 316 363 pack f f f;
#X msg 316 385 \$3 \$1 \$2;
#X obj 316 407 s \$0-channels;
#X floatatom 24 133 5 0 0 0 - - -;
#X floatatom 72 144 5 0 0 0 - - -;
#X connect 0 0 8 0;
#X connect 2 0 10 0;
#X connect 4 0 9 0;
#X connect 4 0 24 0;
#X connect 4 0 23 0;
#X connect 5 0 7 0;
#X connect 6 0 5 0;
#X connect 6 1 5 1;
#X connect 6 2 5 2;
#X connect 7 0 38 0;
#X connect 7 1 44 0;
#X connect 7 2 50 0;
#X connect 7 3 56 0;
#X connect 7 4 62 0;
#X connect 7 5 68 0;
#X connect 7 6 74 0;
#X connect 7 7 80 0;
#X connect 7 8 86 0;
#X connect 7 9 92 0;
#X connect 8 0 6 0;
#X connect 8 0 97 0;
#X connect 8 1 6 1;
#X connect 8 1 98 0;
#X connect 9 0 11 0;
#X connect 9 0 13 0;
#X connect 9 0 14 0;
#X connect 9 0 16 0;
#X connect 9 0 15 0;
#X connect 9 0 17 0;
#X connect 9 0 18 0;
#X connect 9 0 19 0;
#X connect 9 0 20 0;
#X connect 9 0 21 0;
#X connect 10 0 1 0;
#X connect 10 1 1 1;
#X connect 11 0 40 2;
#X connect 12 0 35 0;
#X connect 13 0 46 2;
#X connect 14 0 52 2;
#X connect 15 0 64 2;
#X connect 16 0 58 2;
#X connect 17 0 70 2;
#X connect 18 0 76 2;
#X connect 19 0 82 2;
#X connect 20 0 88 2;
#X connect 21 0 94 2;
#X connect 22 0 12 0;
#X connect 23 0 22 1;
#X connect 24 0 22 0;
#X connect 25 0 22 0;
#X connect 26 0 22 0;
#X connect 27 0 22 0;
#X connect 28 0 22 0;
#X connect 29 0 22 0;
#X connect 30 0 22 0;
#X connect 31 0 22 0;
#X connect 32 0 22 0;
#X connect 33 0 22 0;
#X connect 34 0 22 0;
#X connect 36 0 10 0;
#X connect 37 0 40 0;
#X connect 38 0 37 0;
#X connect 38 1 39 0;
#X connect 39 0 40 1;
#X connect 40 0 41 0;
#X connect 41 0 42 0;
#X connect 43 0 46 0;
#X connect 44 0 43 0;
#X connect 44 1 45 0;
#X connect 45 0 46 1;
#X connect 46 0 47 0;
#X connect 47 0 48 0;
#X connect 49 0 52 0;
#X connect 50 0 49 0;
#X connect 50 1 51 0;
#X connect 51 0 52 1;
#X connect 52 0 53 0;
#X connect 53 0 54 0;
#X connect 55 0 58 0;
#X connect 56 0 55 0;
#X connect 56 1 57 0;
#X connect 57 0 58 1;
#X connect 58 0 59 0;
#X connect 59 0 60 0;
#X connect 61 0 64 0;
#X connect 62 0 61 0;
#X connect 62 1 63 0;
#X connect 63 0 64 1;
#X connect 64 0 65 0;
#X connect 65 0 66 0;
#X connect 67 0 70 0;
#X connect 68 0 67 0;
#X connect 68 1 69 0;
#X connect 69 0 70 1;
#X connect 70 0 71 0;
#X connect 71 0 72 0;
#X connect 73 0 76 0;
#X connect 74 0 73 0;
#X connect 74 1 75 0;
#X connect 75 0 76 1;
#X connect 76 0 77 0;
#X connect 77 0 78 0;
#X connect 79 0 82 0;
#X connect 80 0 79 0;
#X connect 80 1 81 0;
#X connect 81 0 82 1;
#X connect 82 0 83 0;
#X connect 83 0 84 0;
#X connect 85 0 88 0;
#X connect 86 0 85 0;
#X connect 86 1 87 0;
#X connect 87 0 88 1;
#X connect 88 0 89 0;
#X connect 89 0 90 0;
#X connect 91 0 94 0;
#X connect 92 0 91 0;
#X connect 92 1 93 0;
#X connect 93 0 94 1;
#X connect 94 0 95 0;
#X connect 95 0 96 0;
