#N canvas 569 227 1440 851 10;
#X obj 47 33 inlet;
#X obj 68 179 mtof;
#X obj 114 183 / 127;
#X obj 39 213 pack f f f;
#X obj 48 85 unpack f f f;
#X obj 62 142 t b f;
#X obj 122 142 t b f;
#X obj 39 324 generator2~;
#X obj 39 248 route 1 2 3 4 5 6 7 8 9 10;
#X obj 364 482 dac~;
#X obj 114 324 generator2~;
#X obj 189 324 generator2~;
#X obj 261 324 generator2~;
#X obj 335 324 generator2~;
#X obj 410 324 generator2~;
#X obj 482 324 generator2~;
#X obj 556 324 generator2~;
#X obj 631 324 generator2~;
#X obj 706 324 generator2~;
#X obj 370 430 *~ 0.6;
#X connect 0 0 4 0;
#X connect 1 0 3 1;
#X connect 2 0 3 2;
#X connect 3 0 8 0;
#X connect 4 0 3 0;
#X connect 4 1 5 0;
#X connect 4 2 6 0;
#X connect 5 0 3 0;
#X connect 5 1 1 0;
#X connect 6 0 3 0;
#X connect 6 1 2 0;
#X connect 7 0 19 0;
#X connect 8 0 7 0;
#X connect 8 1 10 0;
#X connect 8 2 11 0;
#X connect 8 3 12 0;
#X connect 8 4 13 0;
#X connect 8 5 14 0;
#X connect 8 6 15 0;
#X connect 8 7 16 0;
#X connect 8 8 17 0;
#X connect 8 9 18 0;
#X connect 10 0 19 0;
#X connect 11 0 19 0;
#X connect 12 0 19 0;
#X connect 13 0 19 0;
#X connect 14 0 19 0;
#X connect 15 0 19 0;
#X connect 16 0 19 0;
#X connect 17 0 19 0;
#X connect 18 0 19 0;
#X connect 19 0 9 0;
#X connect 19 0 9 1;
