#N canvas 886 187 863 599 10;
#X obj 47 33 inlet;
#X obj 68 179 mtof;
#X obj 114 183 / 127;
#X obj 39 213 pack f f f;
#X obj 48 85 unpack f f f;
#X obj 62 142 t b f;
#X obj 122 142 t b f;
#X obj 39 248 route 1 2 3 4 5 6 7 8 9 10;
#X obj 359 526 dac~;
#X obj 370 430 +~;
#X text 150 381 volume;
#X obj 244 441 smoothvol;
#X obj 361 490 *~;
#X obj 159 420 / 100;
#X obj 146 397 ctlin 1;
#X obj 39 324 generator2~;
#X obj 375 460 tremolo~;
#X obj 479 408 ctlin 4;
#X obj 489 429 ctlin 5;
#X obj 531 473 ctlin 6;
#X obj 476 451 * 10;
#X obj 57 369 loadbang;
#X msg 58 394 100;
#X obj 636 381 loadbang;
#X msg 632 421 50;
#X msg 554 402 0;
#X obj 335 324 generator2~;
#X obj 706 324 generator2~;
#X obj 114 324 generator2~;
#X obj 189 324 generator2~;
#X obj 261 324 generator2~;
#X obj 410 324 generator2~;
#X obj 482 324 generator2~;
#X obj 556 324 generator2~;
#X obj 630 324 generator2~;
#X connect 0 0 4 0;
#X connect 1 0 3 1;
#X connect 2 0 3 2;
#X connect 3 0 7 0;
#X connect 4 0 3 0;
#X connect 4 1 5 0;
#X connect 4 2 6 0;
#X connect 5 0 3 0;
#X connect 5 1 1 0;
#X connect 6 0 3 0;
#X connect 6 1 2 0;
#X connect 7 0 15 0;
#X connect 7 1 28 0;
#X connect 7 2 29 0;
#X connect 7 3 30 0;
#X connect 7 4 26 0;
#X connect 7 5 31 0;
#X connect 7 6 32 0;
#X connect 7 7 33 0;
#X connect 7 8 34 0;
#X connect 7 9 27 0;
#X connect 9 0 16 0;
#X connect 11 0 12 0;
#X connect 12 0 8 0;
#X connect 12 0 8 1;
#X connect 13 0 11 0;
#X connect 14 0 13 0;
#X connect 15 0 9 0;
#X connect 16 0 12 1;
#X connect 17 0 16 1;
#X connect 18 0 20 0;
#X connect 19 0 16 3;
#X connect 20 0 16 2;
#X connect 21 0 22 0;
#X connect 22 0 13 0;
#X connect 23 0 24 0;
#X connect 23 0 25 0;
#X connect 24 0 20 0;
#X connect 25 0 16 1;
#X connect 26 0 9 0;
#X connect 27 0 9 0;
#X connect 28 0 9 0;
#X connect 29 0 9 0;
#X connect 30 0 9 0;
#X connect 31 0 9 0;
#X connect 32 0 9 0;
#X connect 33 0 9 0;
#X connect 34 0 9 0;
