#N canvas 648 275 866 536 10;
#X obj 47 33 inlet;
#X obj 68 179 mtof;
#X obj 114 183 / 127;
#X obj 39 213 pack f f f;
#X obj 48 85 unpack f f f;
#X obj 62 142 t b f;
#X obj 122 142 t b f;
#X obj 39 248 route 1 2 3 4 5 6 7 8 9 10;
#X obj 359 507 dac~;
#X obj 39 324 generator2~;
#X obj 370 430 +~;
#X obj 146 397 ctlin 12;
#X text 150 381 volume;
#X obj 244 441 smoothvol;
#X obj 369 475 *~;
#X obj 159 420 / 100;
#X obj 706 324 generator2~;
#X obj 114 324 generator2~;
#X obj 189 324 generator2~;
#X obj 261 324 generator2~;
#X obj 335 324 generator2~;
#X obj 410 324 generator2~;
#X obj 482 324 generator2~;
#X obj 556 324 generator2~;
#X obj 630 324 generator2~;
#X connect 0 0 4 0;
#X connect 1 0 3 1;
#X connect 2 0 3 2;
#X connect 3 0 7 0;
#X connect 4 0 3 0;
#X connect 4 1 5 0;
#X connect 4 2 6 0;
#X connect 5 0 3 0;
#X connect 5 1 1 0;
#X connect 6 0 3 0;
#X connect 6 1 2 0;
#X connect 7 0 9 0;
#X connect 7 1 17 0;
#X connect 7 2 18 0;
#X connect 7 3 19 0;
#X connect 7 4 20 0;
#X connect 7 5 21 0;
#X connect 7 6 22 0;
#X connect 7 7 23 0;
#X connect 7 8 24 0;
#X connect 7 9 16 0;
#X connect 9 0 10 0;
#X connect 10 0 14 1;
#X connect 11 0 15 0;
#X connect 13 0 14 0;
#X connect 14 0 8 0;
#X connect 14 0 8 1;
#X connect 15 0 13 0;
#X connect 16 0 10 0;
#X connect 17 0 10 0;
#X connect 18 0 10 0;
#X connect 19 0 10 0;
#X connect 20 0 10 0;
#X connect 21 0 10 0;
#X connect 22 0 10 0;
#X connect 23 0 10 0;
#X connect 24 0 10 0;
