#N canvas 732 23 708 851 10;
#X obj 27 13 inlet;
#X obj 488 184 dac~;
#X msg 437 124 view;
#X obj 544 268 generator2~;
#X obj 276 -46 loadbang;
#X obj 9 215 pack 0 0 0;
#X obj 10 155 poly 10 1;
#X obj 9 245 route 1 2 3 4 5 6 7 8 9 10;
#X obj 491 123 r channels;
#X obj 189 75 s channels;
#X obj 16 94 unpack f f;
#X obj 1 287 notesender;
#X obj 264 170 bng 15 250 50 0 empty empty empty 17 7 0 10 -262144
-1 -1;
#X obj 475 154 channels~;
#X obj 114 458 notesender;
#X obj 62 375 notesender;
#X obj 90 413 notesender;
#X obj 91 286 notesender;
#X obj 108 332 notesender;
#X obj 135 376 notesender;
#X obj 159 415 notesender;
#X obj 182 459 notesender;
#X obj 34 332 notesender;
#X msg 204 196 1;
#X msg 189 53 init \$1 stereo generator2~;
#X msg 235 197 2;
#X msg 267 197 3;
#X msg 330 197 5;
#X msg 298 197 4;
#X msg 204 224 6;
#X msg 235 224 7;
#X msg 267 225 8;
#X msg 299 225 9;
#X msg 331 224 10;
#X obj 189 23 list-seek;
#X msg 247 -6 1 2 3 4 5 6 7 8 9 10;
#X msg 187 -22 set;
#X obj 98 -16 loadbang;
#X obj 99 8 loadbang;
#X obj 101 29 loadbang;
#X obj 102 53 loadbang;
#X obj 101 76 loadbang;
#X obj 102 100 loadbang;
#X obj 97 122 loadbang;
#X obj 98 146 loadbang;
#X obj 96 168 loadbang;
#X obj 97 192 loadbang;
#X connect 0 0 10 0;
#X connect 2 0 13 0;
#X connect 4 0 12 0;
#X connect 4 0 36 0;
#X connect 4 0 35 0;
#X connect 5 0 7 0;
#X connect 6 0 5 0;
#X connect 6 1 5 1;
#X connect 6 2 5 2;
#X connect 7 0 11 0;
#X connect 7 1 22 0;
#X connect 7 2 15 0;
#X connect 7 3 16 0;
#X connect 7 4 14 0;
#X connect 7 5 17 0;
#X connect 7 6 18 0;
#X connect 7 7 19 0;
#X connect 7 8 20 0;
#X connect 7 9 21 0;
#X connect 8 0 13 0;
#X connect 10 0 6 0;
#X connect 10 1 6 1;
#X connect 12 0 23 0;
#X connect 12 0 25 0;
#X connect 12 0 26 0;
#X connect 12 0 28 0;
#X connect 12 0 27 0;
#X connect 12 0 29 0;
#X connect 12 0 30 0;
#X connect 12 0 31 0;
#X connect 12 0 32 0;
#X connect 12 0 33 0;
#X connect 13 0 1 0;
#X connect 13 1 1 1;
#X connect 23 0 11 1;
#X connect 24 0 9 0;
#X connect 25 0 22 1;
#X connect 26 0 15 1;
#X connect 27 0 14 1;
#X connect 28 0 16 1;
#X connect 29 0 17 1;
#X connect 30 0 18 1;
#X connect 31 0 19 1;
#X connect 32 0 20 1;
#X connect 33 0 21 1;
#X connect 34 0 24 0;
#X connect 35 0 34 1;
#X connect 36 0 34 0;
#X connect 37 0 34 0;
#X connect 38 0 34 0;
#X connect 39 0 34 0;
#X connect 40 0 34 0;
#X connect 41 0 34 0;
#X connect 42 0 34 0;
#X connect 43 0 34 0;
#X connect 44 0 34 0;
#X connect 45 0 34 0;
#X connect 46 0 34 0;
