#N canvas 856 136 504 851 10;
#X obj 142 66 inlet;
#X obj 151 136 soundfonts;
#X obj 163 190 dac~;
#X obj 226 76 r soundfonts;
#X obj 150 103 route 35;
#X obj 227 119 list trim;
#X connect 0 0 4 0;
#X connect 1 0 2 0;
#X connect 1 1 2 1;
#X connect 3 0 5 0;
#X connect 4 0 1 0;
#X connect 5 0 1 0;
