#N canvas 829 163 504 851 10;
#X obj 142 66 inlet;
#X obj 151 136 soundfonts;
#X obj 163 190 dac~;
#X obj 226 76 r soundfonts;
#X obj 69 260 print SOUNDFONTS;
#X obj 94 320 print DATA;
#X obj 150 103 route 35;
#X connect 0 0 6 0;
#X connect 1 0 2 0;
#X connect 1 1 2 1;
#X connect 3 0 1 0;
#X connect 3 0 4 0;
#X connect 6 0 1 0;
#X connect 6 0 5 0;
