#N canvas 640 23 387 320 10;
#X obj 136 65 inlet;
#X obj 151 136 soundfonts;
#X obj 163 190 dac~;
#X obj 226 76 r soundfonts;
#X obj 227 119 list trim;
#X obj 142 94 route 35;
#X obj 198 163 *~ 2;
#X obj 126 164 *~ 3;
#X connect 0 0 5 0;
#X connect 1 0 7 0;
#X connect 1 1 6 0;
#X connect 3 0 4 0;
#X connect 4 0 1 0;
#X connect 5 0 1 0;
#X connect 6 0 2 1;
#X connect 7 0 2 0;
