#N canvas 936 23 504 851 10;
#X obj 142 66 inlet;
#X obj 132 149 metro;
#X floatatom 162 115 5 0 0 0 - - -;
#X obj 126 114 tgl 15 0 empty empty empty 17 7 0 10 -262144 -1 -1 0
1;
#X obj 135 190 f;
#X obj 177 189 + 1;
#X obj 135 223 mod 16;
#X obj 135 252 hradio 15 1 0 16 empty empty empty 0 -8 0 10 -262144
-1 -1 0;
#X obj 136 286 select 0 1 2 3 4 5 6 7 8 9 10 11 12 13 14 15;
#X connect 1 0 4 0;
#X connect 2 0 1 1;
#X connect 3 0 1 0;
#X connect 4 0 5 0;
#X connect 4 0 6 0;
#X connect 5 0 4 1;
#X connect 6 0 7 0;
#X connect 7 0 8 0;
