#N canvas 795 267 581 393 10;
#X obj 265 229 bp~ 660 3;
#X obj 206 70 phasor~;
#X obj 208 326 outlet~ L;
#X obj 321 327 outlet~ R;
#X obj 154 94 print;
#X obj 356 206 smoothvol;
#X obj 271 268 *~;
#X obj 206 37 unpack f f;
#X obj 206 -1 inlet;
#X obj 214 148 min~;
#X obj 235 99 *~ -1;
#X obj 235 122 +~ 1;
#X obj 213 176 -~ 0.25;
#X obj 212 204 *~ 4;
#X connect 0 0 6 0;
#X connect 1 0 9 0;
#X connect 1 0 10 0;
#X connect 5 0 6 1;
#X connect 6 0 2 0;
#X connect 6 0 3 0;
#X connect 7 0 1 0;
#X connect 7 1 5 0;
#X connect 8 0 7 0;
#X connect 8 0 4 0;
#X connect 9 0 12 0;
#X connect 10 0 11 0;
#X connect 11 0 9 1;
#X connect 12 0 13 0;
#X connect 13 0 0 0;
