#N canvas 795 267 581 393 10;
#X obj 265 229 bp~ 660 3;
#X obj 206 70 phasor~;
#X obj 356 206 smoothvol;
#X obj 271 268 *~;
#X obj 206 37 unpack f f;
#X obj 206 -1 inlet;
#X obj 214 148 min~;
#X obj 235 99 *~ -1;
#X obj 235 122 +~ 1;
#X obj 213 176 -~ 0.25;
#X obj 212 204 *~ 4;
#X obj 208 326 outlet~;
#X text 364 75 filter freq;
#X obj 372 122 * 7;
#X obj 372 94 ctlin 21;
#X connect 0 0 3 0;
#X connect 1 0 6 0;
#X connect 1 0 7 0;
#X connect 2 0 3 1;
#X connect 3 0 11 0;
#X connect 4 0 1 0;
#X connect 4 1 2 0;
#X connect 5 0 4 0;
#X connect 6 0 9 0;
#X connect 7 0 8 0;
#X connect 8 0 6 1;
#X connect 9 0 10 0;
#X connect 10 0 0 0;
#X connect 13 0 0 1;
#X connect 14 0 13 0;
