#N canvas 17 225 581 393 10;
#X obj 255 201 +~;
#X obj 203 160 -~ 0.5;
#X obj 289 160 -~ 0.5;
#X obj 254 241 bp~ 660 3;
#X obj 202 132 phasor~;
#X obj 288 132 phasor~;
#X obj 260 280 *~;
#X obj 194 41 unpack f f;
#X obj 195 11 inlet;
#X obj 197 338 outlet~;
#X obj 288 103 + 0;
#X text 183 -7 input freq;
#X obj 266 67 t b f;
#X obj 345 218 smoothvol;
#X obj 385 27 ctlin 10;
#X text 388 7 phase;
#X obj 338 59 / 4;
#X obj 380 115 ctlin 11;
#X text 372 96 filter freq;
#X obj 380 143 * 7;
#X connect 0 0 3 0;
#X connect 1 0 0 0;
#X connect 2 0 0 1;
#X connect 3 0 6 0;
#X connect 4 0 1 0;
#X connect 5 0 2 0;
#X connect 6 0 9 0;
#X connect 7 0 4 0;
#X connect 7 0 12 0;
#X connect 7 1 13 0;
#X connect 8 0 7 0;
#X connect 10 0 5 0;
#X connect 12 0 10 0;
#X connect 12 1 10 1;
#X connect 13 0 6 1;
#X connect 14 0 16 0;
#X connect 16 0 10 0;
#X connect 17 0 19 0;
#X connect 19 0 3 1;
