#N canvas 848 406 581 393 10;
#X obj 256 179 +~;
#X obj 204 138 -~ 0.5;
#X obj 290 138 -~ 0.5;
#X obj 255 219 bp~ 660 3;
#X obj 203 110 phasor~;
#X obj 289 110 phasor~;
#X obj 289 81 + 2;
#X obj 319 51 r phase;
#X obj 144 84 print;
#X obj 346 196 smoothvol;
#X obj 261 258 *~;
#X obj 196 27 unpack f f;
#X obj 196 -11 inlet;
#X obj 198 316 outlet~;
#X connect 0 0 3 0;
#X connect 1 0 0 0;
#X connect 2 0 0 1;
#X connect 3 0 10 0;
#X connect 4 0 1 0;
#X connect 5 0 2 0;
#X connect 6 0 5 0;
#X connect 7 0 6 1;
#X connect 9 0 10 1;
#X connect 10 0 13 0;
#X connect 11 0 4 0;
#X connect 11 0 6 0;
#X connect 11 1 9 0;
#X connect 12 0 11 0;
#X connect 12 0 8 0;
