#N canvas 448 47 823 725 10;
#X obj 37 23 inlet;
#X obj 58 169 mtof;
#X obj 104 173 / 127;
#X obj 29 203 pack f f f;
#X obj 38 75 unpack f f f;
#X obj 30 314 generator~;
#X obj 29 238 route 11 12 13 14 15 16 17 18 19 20;
#X obj 52 132 t b f;
#X obj 112 132 t b f;
#X obj 326 612 dac~;
#X text 138 375 volume;
#X obj 232 435 smoothvol;
#X obj 147 414 / 100;
#X obj 353 415 +~;
#X obj 335 552 *~;
#X obj 104 314 generator~;
#X obj 179 314 generator~;
#X obj 251 314 generator~;
#X obj 325 314 generator~;
#X obj 400 314 generator~;
#X obj 472 314 generator~;
#X obj 546 314 generator~;
#X obj 621 314 generator~;
#X obj 696 314 generator~;
#X obj 39 351 loadbang;
#X msg 40 376 100;
#X obj 380 523 tremolo~;
#X obj 484 500 * 10;
#X obj 568 443 loadbang;
#X msg 446 453 0;
#X msg 677 483 2;
#X obj 134 391 ctlin 11;
#X obj 466 476 ctlin 14;
#X obj 523 481 ctlin 15;
#X obj 529 540 ctlin 16;
#X connect 0 0 4 0;
#X connect 1 0 3 1;
#X connect 2 0 3 2;
#X connect 3 0 6 0;
#X connect 4 0 3 0;
#X connect 4 1 7 0;
#X connect 4 2 8 0;
#X connect 5 0 13 0;
#X connect 6 0 5 0;
#X connect 6 1 15 0;
#X connect 6 2 16 0;
#X connect 6 3 17 0;
#X connect 6 4 18 0;
#X connect 6 5 19 0;
#X connect 6 6 20 0;
#X connect 6 7 21 0;
#X connect 6 8 22 0;
#X connect 6 9 23 0;
#X connect 7 0 3 0;
#X connect 7 1 1 0;
#X connect 8 0 3 0;
#X connect 8 1 2 0;
#X connect 11 0 14 0;
#X connect 12 0 11 0;
#X connect 13 0 26 0;
#X connect 14 0 9 0;
#X connect 14 0 9 1;
#X connect 15 0 13 0;
#X connect 16 0 13 0;
#X connect 17 0 13 0;
#X connect 18 0 13 0;
#X connect 19 0 13 0;
#X connect 20 0 13 0;
#X connect 21 0 13 0;
#X connect 22 0 13 0;
#X connect 23 0 13 0;
#X connect 24 0 25 0;
#X connect 25 0 12 0;
#X connect 26 0 14 1;
#X connect 27 0 26 2;
#X connect 28 0 30 0;
#X connect 28 0 29 0;
#X connect 29 0 26 1;
#X connect 30 0 27 0;
#X connect 31 0 12 0;
#X connect 32 0 26 1;
#X connect 33 0 27 0;
#X connect 34 0 26 3;
