#N canvas 0 23 935 851 10;
#X obj 37 23 inlet;
#X obj 58 169 mtof;
#X obj 104 173 / 127;
#X obj 29 203 pack f f f;
#X obj 38 75 unpack f f f;
#X obj 30 314 generator~;
#X obj 29 238 route 11 12 13 14 15 16 17 18 19 20;
#X obj 52 132 t b f;
#X obj 112 132 t b f;
#X obj 343 491 dac~;
#X obj 353 415 compressor~;
#X obj 104 314 generator~;
#X obj 179 314 generator~;
#X obj 251 314 generator~;
#X obj 325 314 generator~;
#X obj 400 314 generator~;
#X obj 472 314 generator~;
#X obj 546 314 generator~;
#X obj 621 314 generator~;
#X obj 696 314 generator~;
#X connect 0 0 4 0;
#X connect 1 0 3 1;
#X connect 2 0 3 2;
#X connect 3 0 6 0;
#X connect 4 0 3 0;
#X connect 4 1 7 0;
#X connect 4 2 8 0;
#X connect 5 0 10 0;
#X connect 6 0 5 0;
#X connect 6 1 11 0;
#X connect 6 2 12 0;
#X connect 6 3 13 0;
#X connect 6 4 14 0;
#X connect 6 5 15 0;
#X connect 6 6 16 0;
#X connect 6 7 17 0;
#X connect 6 8 18 0;
#X connect 6 9 19 0;
#X connect 7 0 3 0;
#X connect 7 1 1 0;
#X connect 8 0 3 0;
#X connect 8 1 2 0;
#X connect 10 0 9 0;
#X connect 10 0 9 1;
#X connect 11 0 10 0;
#X connect 12 0 10 0;
#X connect 13 0 10 0;
#X connect 14 0 10 0;
#X connect 15 0 10 0;
#X connect 16 0 10 0;
#X connect 17 0 10 0;
#X connect 18 0 10 0;
#X connect 19 0 10 0;
