#N canvas 0 23 935 851 10;
#X obj 37 23 inlet;
#X obj 498 194 dac~;
#X msg 447 134 view;
#X obj 554 278 generator2~;
#X obj 286 -36 loadbang;
#X obj 38 120 poly 10 1;
#X obj 38 75 unpack f f;
#X obj 485 164 channels~;
#X obj 501 133 r \$0-channels;
#X obj 531 389 generator~;
#X obj 414 36 uzi 10;
#X msg 448 71 init \$1 stereo generator~;
#X obj 449 92 s \$0-channels;
#X obj 751 429 stripnote;
#X obj 29 233 s \$0-channels;
#X msg 288 32 \; pd dsp 1;
#X obj 58 169 mtof;
#X obj 104 173 / 127;
#X obj 29 203 pack f f f;
#X connect 0 0 6 0;
#X connect 2 0 7 0;
#X connect 4 0 10 0;
#X connect 4 0 15 0;
#X connect 5 0 18 0;
#X connect 5 1 16 0;
#X connect 5 2 17 0;
#X connect 6 0 5 0;
#X connect 6 1 5 1;
#X connect 7 0 1 0;
#X connect 7 1 1 1;
#X connect 8 0 7 0;
#X connect 10 2 11 0;
#X connect 11 0 12 0;
#X connect 16 0 18 1;
#X connect 17 0 18 2;
#X connect 18 0 14 0;
