#N canvas 491 258 450 300 10;
#X obj 132 118 inlet;
#X obj 207 79 loadbang;
#X obj 197 105 f \$1;
#X obj 164 220 outlet;
#X obj 197 57 inlet;
#X obj 164 186 list split 1;
#X obj 132 149 list-splat;
#X connect 0 0 6 0;
#X connect 1 0 2 0;
#X connect 2 0 6 1;
#X connect 4 0 2 0;
#X connect 5 0 3 0;
#X connect 6 1 5 0;
