#N canvas 895 236 450 300 10;
#X obj 76 73 inlet;
#X obj 211 130 list-idx \$2;
#X obj 283 101 inlet;
#X obj 241 220 inlet;
#X obj 211 158 route float;
#X obj 76 409 outlet;
#X obj 100 379 outlet;
#X obj 211 252 >= \$1;
#X obj 76 100 t a a;
#X text 175 44 arg1: comparison value;
#X text 175 69 arg2: which element to compare (zero based);
#X obj 124 348 outlet;
#X obj 283 220 b;
#X obj 76 288 list prepend 2;
#X obj 283 252 2;
#X obj 76 318 route 0 1 2;
#X connect 0 0 8 0;
#X connect 1 0 4 0;
#X connect 2 0 1 1;
#X connect 3 0 7 1;
#X connect 4 0 7 0;
#X connect 4 1 12 0;
#X connect 7 0 13 1;
#X connect 8 0 13 0;
#X connect 8 1 1 0;
#X connect 12 0 14 0;
#X connect 13 0 15 0;
#X connect 14 0 13 1;
#X connect 15 0 5 0;
#X connect 15 1 6 0;
#X connect 15 2 11 0;
