#N canvas 0 22 450 300 10;
#X obj 43 144 mtof;
#X obj 39 80 unpack 0 0;
#X obj 82 143 / 127;
#X obj 39 33 inlet;
#X floatatom 161 173 5 0 0 0 - - -;
#X floatatom 161 204 5 0 0 0 - - -;
#X obj 54 251 s channels;
#X obj 54 198 pack f f;
#X msg 54 220 2 \$1 \$2;
#X connect 0 0 7 0;
#X connect 1 0 0 0;
#X connect 1 0 5 0;
#X connect 1 1 2 0;
#X connect 2 0 4 0;
#X connect 2 0 7 1;
#X connect 3 0 1 0;
#X connect 7 0 8 0;
#X connect 8 0 6 0;
