#N canvas 0 23 450 300 10;
#X obj 160 185 line~;
#X obj 90 161 pack f f;
#X obj 134 122 bng 15 250 50 0 empty empty empty 17 7 0 10 -262144
-1 -1;
#X obj 89 79 inlet;
#X obj 162 229 outlet~;
#X obj 164 138 10;
#X connect 0 0 4 0;
#X connect 1 0 0 0;
#X connect 2 0 5 0;
#X connect 3 0 2 0;
#X connect 3 0 1 0;
#X connect 5 0 1 1;
