#N canvas 632 41 735 851 10;
#X obj 36 15 piano;
#X obj 161 355 chordal;
#X obj 283 356 lead;
#X obj 370 359 drums;
#X obj 165 216 notein;
#X obj 162 297 pack f f f;
#X obj 162 324 route 1 2 3 4;
#X floatatom 276 219 5 0 0 0 - - -;
#X floatatom 51 208 5 0 0 0 - - -;
#X floatatom 92 201 5 0 0 0 - - -;
#X obj 196 254 t b f;
#X obj 140 253 t b f;
#X connect 4 0 8 0;
#X connect 4 0 11 0;
#X connect 4 1 9 0;
#X connect 4 1 10 0;
#X connect 4 2 5 0;
#X connect 4 2 7 0;
#X connect 5 0 6 0;
#X connect 6 0 1 0;
#X connect 6 1 2 0;
#X connect 10 0 5 0;
#X connect 10 1 5 2;
#X connect 11 0 5 0;
#X connect 11 1 5 1;
