#N canvas 885 202 450 300 10;
#X obj 56 41 inlet~;
#X obj 54 248 outlet~;
#X obj 54 195 gswitch~;
#X obj 153 44 inlet;
#X text 40 19 input signal;
#X text 156 25 rate;
#X text 844 48 mixolydian;
#X text 307 25 toggle;
#X obj 221 44 inlet;
#X text 221 25 depth;
#X obj 118 82 osc~;
#X obj 118 113 *~;
#X obj 305 49 inlet;
#X obj 252 150 tgl 15 0 empty empty empty 17 7 0 10 -262144 -1 -1 0
1;
#X obj 115 137 *~ 1.5;
#X obj 91 168 *~;
#X connect 0 0 2 0;
#X connect 0 0 15 0;
#X connect 2 0 1 0;
#X connect 3 0 10 0;
#X connect 8 0 11 1;
#X connect 10 0 11 0;
#X connect 11 0 14 0;
#X connect 12 0 13 0;
#X connect 13 0 2 2;
#X connect 14 0 15 1;
#X connect 15 0 2 1;
