#N canvas 440 157 868 575 10;
#X obj 57 43 inlet;
#X obj 78 189 mtof;
#X obj 124 193 / 127;
#X obj 49 223 pack f f f;
#X obj 58 95 unpack f f f;
#X obj 72 152 t b f;
#X obj 132 152 t b f;
#X obj 374 492 dac~;
#X obj 380 440 *~ 0.6;
#X obj 49 334 bass~;
#X obj 101 334 bass~;
#X obj 159 334 bass~;
#X obj 207 334 bass~;
#X obj 257 334 bass~;
#X obj 310 333 bass~;
#X obj 357 333 bass~;
#X obj 401 332 bass~;
#X obj 449 332 bass~;
#X obj 502 333 bass~;
#X obj 49 258 route 21 22 23 24 25 26 27 28 29 30;
#X connect 0 0 4 0;
#X connect 1 0 3 1;
#X connect 2 0 3 2;
#X connect 3 0 19 0;
#X connect 4 0 3 0;
#X connect 4 1 5 0;
#X connect 4 2 6 0;
#X connect 5 0 3 0;
#X connect 5 1 1 0;
#X connect 6 0 3 0;
#X connect 6 1 2 0;
#X connect 8 0 7 0;
#X connect 8 0 7 1;
#X connect 9 0 8 0;
#X connect 10 0 8 0;
#X connect 11 0 8 0;
#X connect 12 0 8 0;
#X connect 13 0 8 0;
#X connect 14 0 8 0;
#X connect 15 0 8 0;
#X connect 16 0 8 0;
#X connect 17 0 8 0;
#X connect 18 0 8 0;
#X connect 19 0 9 0;
#X connect 19 1 10 0;
#X connect 19 2 11 0;
#X connect 19 3 12 0;
#X connect 19 4 13 0;
#X connect 19 5 14 0;
#X connect 19 6 15 0;
#X connect 19 7 16 0;
#X connect 19 8 17 0;
#X connect 19 9 18 0;
