#N canvas 612 215 556 399 10;
#X obj 366 216 smoothvol;
#X obj 281 278 *~;
#X obj 216 47 unpack f f;
#X obj 216 9 inlet;
#X obj 218 336 outlet~;
#X obj 192 170 -~;
#X obj 357 37 loadbang;
#X msg 323 65 0;
#X msg 348 97 0.5;
#X obj 234 241 lop~ 660;
#X obj 179 203 *~;
#X obj 146 130 phasor~;
#X obj 220 131 phasor~;
#X obj 60 146 osc~;
#X connect 0 0 1 1;
#X connect 1 0 4 0;
#X connect 2 0 11 0;
#X connect 2 0 12 0;
#X connect 2 0 13 0;
#X connect 2 1 0 0;
#X connect 3 0 2 0;
#X connect 5 0 10 1;
#X connect 6 0 7 0;
#X connect 6 0 8 0;
#X connect 7 0 11 1;
#X connect 8 0 12 1;
#X connect 9 0 1 0;
#X connect 10 0 9 0;
#X connect 11 0 5 0;
#X connect 12 0 5 1;
#X connect 13 0 10 0;
