#N canvas 510 156 750 431 10;
#X obj 160 284 chordal;
#X obj 245 336 lead;
#X obj 351 368 drums;
#X obj 202 111 notein;
#X obj 222 169 t b f;
#X obj 144 168 t b f;
#X obj 161 217 pack f f f;
#X obj 158 251 list-moses 11;
#X obj 245 289 list-moses 21;
#X obj 305 322 list-moses 31;
#X text 372 1 Pocket Orchestra;
#X obj 304 375 bass;
#X connect 3 0 5 0;
#X connect 3 1 4 0;
#X connect 3 2 6 0;
#X connect 4 0 6 0;
#X connect 4 1 6 2;
#X connect 5 0 6 0;
#X connect 5 1 6 1;
#X connect 6 0 7 0;
#X connect 7 0 0 0;
#X connect 7 1 8 0;
#X connect 8 0 1 0;
#X connect 8 1 9 0;
#X connect 9 0 11 0;
#X connect 9 1 2 0;
