#N canvas 622 23 750 431 10;
#X obj 160 284 chordal;
#X obj 245 336 lead;
#X obj 351 368 drums;
#X obj 177 128 notein;
#X obj 170 180 pack f f f;
#X obj 158 251 list-moses 11;
#X obj 245 289 list-moses 21;
#X obj 305 322 list-moses 31;
#X text 372 1 Pocket Orchestra;
#X obj 304 375 bass;
#X msg 173 215 \$3 \$1 \$2;
#X connect 3 0 4 0;
#X connect 3 1 4 1;
#X connect 3 2 4 2;
#X connect 4 0 10 0;
#X connect 5 0 0 0;
#X connect 5 1 6 0;
#X connect 6 0 1 0;
#X connect 6 1 7 0;
#X connect 7 0 9 0;
#X connect 7 1 2 0;
#X connect 10 0 5 0;
